
<svg xmlns="http://www.w3.org/2000/svg" viewBox="0 0 100 100" width="100" height="100">
  <defs>
    <linearGradient id="birdGradient" x1="0%" y1="0%" x2="100%" y2="100%">
      <stop offset="0%" style="stop-color:#2563eb;stop-opacity:1" />
      <stop offset="100%" style="stop-color:#1e40af;stop-opacity:1" />
    </linearGradient>
  </defs>
  
  <!-- Corpo do pássaro -->
  <path d="M50 20 C60 20, 70 25, 80 35 C85 40, 87.5 45, 87.5 50 C87.5 60, 82.5 70, 75 77.5 C70 82.5, 62.5 85, 55 85 C50 85, 45 83.75, 40 81.25 C35 78.75, 30 75, 27.5 70 C25 65, 23.75 60, 25 55 C26.25 50, 28.75 45, 32.5 41.25 C36.25 37.5, 41.25 35, 46.25 33.75 C47.5 33.25, 48.75 32.75, 50 32.5 Z" fill="url(#birdGradient)"/>
  
  <!-- Asa -->
  <path d="M40 50 C45 47.5, 50 46.25, 55 46.25 C60 46.25, 65 47.5, 68.75 50 C71.25 51.75, 72.5 53.75, 71.25 56.25 C70 58.75, 67.5 60, 63.75 60.5 C60 61, 56.25 60.75, 52.5 60 C48.75 59.25, 45 58, 42.5 56.25 C40 54.5, 38.75 52.5, 40 50 Z" fill="#1e3a8a"/>
  
  <!-- Olho (destaque laranja) -->
  <circle cx="60" cy="45" r="4.5" fill="#fb7c00"/>
  <circle cx="60.5" cy="44.5" r="1.5" fill="#000"/>
  
  <!-- Elementos de tecnologia (circuitos) no topo -->
  <g stroke="#2563eb" stroke-width="0.75" fill="#2563eb">
    <!-- Conexão central -->
    <circle cx="50" cy="15" r="2"/>
    <line x1="50" y1="17" x2="50" y2="20"/>
    
    <!-- Conexões laterais -->
    <circle cx="40" cy="10" r="1.5"/>
    <line x1="41.5" y1="11.25" x2="48.5" y2="16.25"/>
    
    <circle cx="60" cy="10" r="1.5"/>
    <line x1="58.5" y1="11.25" x2="51.5" y2="16.25"/>
    
    <circle cx="70" cy="15" r="1.5"/>
    <line x1="68.5" y1="16.25" x2="51.5" y2="16.25"/>
    
    <circle cx="30" cy="17.5" r="1.5"/>
    <line x1="31.5" y1="18.75" x2="48.5" y2="16.25"/>
  </g>
</svg>
